<svg id="Layer_1" data-name="Layer 1" xmlns="http://www.w3.org/2000/svg" viewBox="0 0 566.93 566.93"><title>Galeri</title><path d="M284,200.41c46.55,0,93.11.09,139.66,0,20.84-.06,36.49,9.12,47.93,26.05a64.47,64.47,0,0,1,10.71,31.18c.24,2.86.36,5.74.37,8.62q0,62.86,0,125.74c0,16.65-5.13,31.63-16.05,44.36-8.57,10-19.27,16.46-32.36,18.64a47.17,47.17,0,0,1-7.86.71q-142.18,0-284.36,0c-15.21,0-27.9-6.26-38.32-17.15-9.22-9.64-14.64-21.22-17-34.3a74.06,74.06,0,0,1-1-13.13q0-63.6,0-127.18c0-15.89,4.77-30.24,14.78-42.65,8.64-10.71,19.65-17.72,33.35-20.07a56.39,56.39,0,0,1,9.54-.74Q213.71,200.38,284,200.41ZM117.86,313.52l.47.12c.4-.66.82-1.31,1.22-2a84.73,84.73,0,0,1,9.3-12.79c5.39-6,11.47-11.15,19.08-14.17,11.49-4.55,22.1-3.11,31.62,4.92a67.52,67.52,0,0,1,6.18,6A93.1,93.1,0,0,1,197,311.17c4.11,6.95,8,14.05,12.06,21,3.74,6.32,7.56,12.61,11.54,18.79a40.61,40.61,0,0,0,8.68,9.55,18.16,18.16,0,0,0,15.06,3.83A38.28,38.28,0,0,0,259.69,358c4.55-3.11,9-6.42,13.45-9.64a76,76,0,0,1,17.47-9.92c10.71-4,21.67-5.44,32.92-2.57,8.05,2.05,15,6.21,21.51,11.28,7.65,6,14.32,13,20.85,20.15,9.32,10.22,18.29,20.77,28.25,30.4a156.57,156.57,0,0,0,31,23.66,8.72,8.72,0,0,0,9.58,0,32.94,32.94,0,0,0,3-1.89,29.22,29.22,0,0,0,9.42-11.91,40,40,0,0,0,3.38-16.78q0-62.62,0-125.26c0-.88,0-1.76,0-2.64a36.88,36.88,0,0,0-4.61-16.71c-5.05-8.87-12.24-13.71-22.93-13.69q-138.94.19-277.88.08l-2.87,0a19.64,19.64,0,0,0-9.37,2.63,26.54,26.54,0,0,0-9.48,9.32,37,37,0,0,0-5.53,20.07c0,15.59,0,31.19,0,46.79Z"/><path d="M284.21,188.53q-68.64,0-137.28,0a24.07,24.07,0,0,1-5.7-.53,16.45,16.45,0,0,1,2.41-32.32c1.11-.11,2.23-.13,3.35-.13q137.16,0,274.32,0a31,31,0,0,1,4.31.25,16.45,16.45,0,0,1-.78,32.63c-1.19.11-2.4.12-3.6.12Z"/><path d="M284.08,113.05q56.51,0,113,0a13.34,13.34,0,0,1,11.54,5.71,12.88,12.88,0,0,1,1.19,13.84c-2.37,4.88-6.44,7.37-11.81,7.77-.64,0-1.28,0-1.92,0q-111.94,0-223.88,0a20.4,20.4,0,0,1-4.28-.36,13.61,13.61,0,0,1,2.88-26.93Q227.45,113,284.08,113.05Z"/><path d="M379,275.78a22.76,22.76,0,1,1,22.54,22.94A22.69,22.69,0,0,1,379,275.78Z"/></svg>