<svg id="Layer_1" data-name="Layer 1" xmlns="http://www.w3.org/2000/svg" viewBox="0 0 566.93 566.93"><defs><style>.cls-1{fill:#231f20;}</style></defs><title>Home</title><path class="cls-1" d="M419.88,187.51,313.81,120.94a57.08,57.08,0,0,0-60.7,0l-111,69.65a46.61,46.61,0,0,0-21.83,39.48V397.65a57.08,57.08,0,0,0,57.08,57.08H389.54a57.08,57.08,0,0,0,57.08-57.08V235.86A57.1,57.1,0,0,0,419.88,187.51ZM371.23,402.65A18.57,18.57,0,0,1,358,408.12H208.88a18.65,18.65,0,0,1,0-37.3H358a18.65,18.65,0,0,1,13.19,31.83Z"/></svg>