<svg id="Layer_1" data-name="Layer 1" xmlns="http://www.w3.org/2000/svg" viewBox="0 0 566.93 566.93"><title>Map-04</title><path d="M443,259.59a79.4,79.4,0,0,0-121.74,67.16c0,28.38,16,58.74,34.6,84.36a373.75,373.75,0,0,0,30.52,36.54c8.83,9.34,18.42,9.54,28.25,0C442.73,420.36,480,365.31,480,326.75A79.32,79.32,0,0,0,443,259.59Zm-42.34,93.14a26,26,0,1,1,26-26A26,26,0,0,1,400.63,352.73Z"/><path d="M443,134.8V224a111,111,0,0,0-126.56,30.3V190.77l-86.75-29.4V347.22l67.52,22c6.49,18.7,16.52,36.83,28,53.51L210.41,385l-76,38a21.36,21.36,0,0,1-30.92-19.11V175.63a21.74,21.74,0,0,1,12.15-19.51L200,114.61a22.54,22.54,0,0,1,17-1.16l117.94,39.2,76.88-37.37A21.7,21.7,0,0,1,443,134.8Z"/></svg>