<svg id="Layer_1" data-name="Layer 1" xmlns="http://www.w3.org/2000/svg" viewBox="0 0 566.93 566.93"><title>Sejarah-03</title><path d="M425.36,421a29.74,29.74,0,0,0-4.32-.26H397.68V392.39a65.34,65.34,0,0,0-7.63-30.4,72.11,72.11,0,0,0-16.82-21l-66.77-57.49h0L373.23,226c13.62-11.73,22.15-27.58,24-44.31a65.07,65.07,0,0,0,.4-7.12V146.21H421c1.21,0,2.41,0,3.61-.12,7.93-.74,14.43-7.91,14.77-16,.38-8.82-5.83-16.45-14-17.66a31.21,31.21,0,0,0-4.32-.25H145.81a31.65,31.65,0,0,0-3.37.14,17,17,0,0,0-2.42,33.3,23.86,23.86,0,0,0,5.73.55h23.5v28.34a65.07,65.07,0,0,0,.4,7.12c1.9,16.73,10.43,32.58,24,44.31l66.77,57.49h0L193.69,341a72.08,72.08,0,0,0-16.81,21,65.34,65.34,0,0,0-7.63,30.4v28.33H145.81c-1.12,0-2.25,0-3.37.13a15.82,15.82,0,0,0-4,.94,17.08,17.08,0,0,0,1.6,32.36,23.37,23.37,0,0,0,5.73.56q68.87,0,137.73,0H421c1.21,0,2.41,0,3.61-.12,7.93-.73,14.43-7.91,14.77-16a17.17,17.17,0,0,0-.23-3.67A16.75,16.75,0,0,0,425.36,421ZM200,181.66a34.55,34.55,0,0,1-.74-7.12V146.2H367.68v28.33a34.55,34.55,0,0,1-.74,7.12Zm22.83,173.82,60.64-52.22,63.7,54.84,4.52,3.89H215.26Z"/></svg>